<svg width="40" height="36" viewBox="0 0 40 36" fill="none"
    xmlns="http://www.w3.org/2000/svg">
    <path d="M3.4415 11.4508L16.0968 1.22323C17.1057 0.407932 18.3131 0 19.5206 0C20.7278 0 21.9351 0.407932 22.9443 1.22323L35.5993 11.4506C36.2611 11.9852 36.7679 12.6204 37.1093 13.3355L37.1063 13.3369C37.4508 14.0586 37.628 14.8501 37.628 15.6906V30.5479C37.628 32.0497 37.0158 33.4132 36.0283 34.4003C35.0411 35.3878 33.6774 36 32.1756 36H6.86521C5.36324 36 3.99985 35.3878 3.01277 34.4003C2.02527 33.4132 1.41309 32.0497 1.41309 30.5479V15.6908C1.41309 14.8447 1.58928 14.0526 1.93155 13.3358C2.27283 12.621 2.77947 11.9858 3.4415 11.4508ZM17.2419 2.64744L4.58668 12.875C4.14641 13.2306 3.81012 13.6514 3.58493 14.1231C3.36074 14.5926 3.24537 15.1199 3.24537 15.6908V30.5479C3.24537 31.5443 3.65202 32.4492 4.30808 33.105C4.96385 33.7611 5.86874 34.1677 6.86521 34.1677H32.1756C33.1721 34.1677 34.0771 33.7611 34.733 33.105C35.3889 32.4492 35.7956 31.5443 35.7956 30.5479V15.6906C35.7956 15.1146 35.6815 14.5873 35.4596 14.1228H35.4559C35.2307 13.6511 34.8946 13.2304 34.4543 12.8747L21.7992 2.64744C21.1269 2.10419 20.3233 1.83228 19.5206 1.83228C18.7175 1.83228 17.914 2.10419 17.2419 2.64744Z" fill="#FFFFFF"/>
    <path fill-rule="evenodd" clip-rule="evenodd" d="M9.87733 35.0836H6.86541C4.36695 35.0836 2.32928 33.0461 2.32928 30.5475V27.2886C2.72782 27.212 3.13903 27.1714 3.55964 27.1714C7.13717 27.1714 10.037 30.0712 10.037 33.6488C10.037 34.1417 9.98174 34.6222 9.87733 35.0836Z" fill="#FFFFFF"/>
    <path fill-rule="evenodd" clip-rule="evenodd" d="M12.2167 18.5771C10.5109 19.0749 10.4607 17.5624 11.064 17.1574C11.881 16.6089 12.8055 17.3881 12.2167 18.5771ZM11.5834 12.9109C9.18339 13.211 7.57673 15.7594 7.6327 18.5432C7.66247 20.0204 8.15772 21.1812 8.8132 22.1707C9.73903 23.5686 11.6743 25.2579 12.7262 22.5684C12.9432 22.0136 13.1019 21.4006 13.3716 20.8546C14.0749 19.4304 14.8214 19.7261 15.3329 18.0871C16.2242 15.2312 14.3452 12.5656 11.5834 12.9109Z" fill="#FFFFFF"/>
    <path fill-rule="evenodd" clip-rule="evenodd" d="M16.438 22.5953C17.2939 22.7935 17.7413 22.4032 18.3936 23.0037C19.2009 23.7465 18.9608 23.8587 19.5247 24.6688C20.063 23.8512 19.7936 23.7851 20.5704 23.0587C21.4484 22.238 21.5773 22.846 22.61 22.5935C23.2712 19.4044 15.7228 19.4501 16.438 22.5953Z" fill="#FFFFFF"/>
    <path fill-rule="evenodd" clip-rule="evenodd" d="M19.5247 26.9435C19.3853 27.1008 19.5189 26.939 19.323 27.2155C18.4338 28.4712 17.9944 28.0094 17.6103 28.5795C16.5367 30.1725 22.0572 30.5765 21.4886 28.7134C21.3482 28.2533 20.8158 28.2221 20.3859 27.9522C19.9258 27.6633 19.7945 27.2911 19.5247 26.9435Z" fill="#FFFFFF"/>
    <path fill-rule="evenodd" clip-rule="evenodd" d="M26.8246 18.5771C28.5304 19.0749 28.5806 17.5624 27.9774 17.1575C27.1603 16.609 26.2357 17.3881 26.8246 18.5771ZM27.4578 12.9109C29.858 13.211 31.4645 15.7595 31.4085 18.5432C31.3789 20.0204 30.8835 21.1813 30.2282 22.1708C29.3022 23.5686 27.3669 25.2579 26.3151 22.5684C26.098 22.0137 25.9395 21.4006 25.6697 20.8547C24.9663 19.4305 24.22 19.7261 23.7084 18.0871C22.8171 15.2312 24.6962 12.5657 27.4578 12.9109Z" fill="#FFFFFF"/>
    <path fill-rule="evenodd" clip-rule="evenodd" d="M29.1636 35.0836H32.1756C34.6741 35.0836 36.7118 33.0461 36.7118 30.5475V27.2886C36.3132 27.212 35.902 27.1714 35.4813 27.1714C31.9039 27.1714 29.0039 30.0712 29.0039 33.6488C29.0039 34.1417 29.0593 34.6222 29.1636 35.0836Z" fill="#FFFFFF"/>
    <path fill-rule="evenodd" clip-rule="evenodd" d="M2.44364 13.7382C2.48495 13.8038 8.0016 7.77198 14.1571 4.24059C10.2391 0.309672 3.65491 -0.325019 0.91945 3.36048C-0.687928 5.52621 -0.192685 9.58062 2.44364 13.7382Z" fill="#FFFFFF"/>
    <path fill-rule="evenodd" clip-rule="evenodd" d="M36.6387 13.7382C36.5974 13.8039 31.0808 7.77188 24.9252 4.24064C28.8431 0.309577 35.4275 -0.324971 38.1629 3.36053C39.7703 5.52626 39.2751 9.58066 36.6387 13.7382Z" fill="#FFFFFF"/>
</svg>