<svg width="1387" height="1027" viewBox="0 0 1387 1027" fill="none"
    xmlns="http://www.w3.org/2000/svg">
    <g filter="url(#filter0_f_28_385)">
        <path d="M405.078 412.569L180 436.794C235.773 446.946 355.366 465.25 387.558 457.252C419.751 449.253 495.923 456.781 529.986 461.545C621.067 461.328 813.226 453.33 853.207 423.078C903.183 385.264 954.872 361.009 965.622 333.59C976.373 306.171 1073.34 268.035 1099.9 242.129C1126.46 216.223 1269.56 200.863 1281.91 169.383C1291.78 144.198 1459.7 162.158 1542.43 174.287L1869.22 153.621C1796.29 152.364 1621.64 146.765 1506.51 134.426C1362.59 119.002 1337.2 109.048 1306.2 107.437C1275.19 105.826 1078.01 151.533 1032.12 164C995.401 173.974 940.548 231.2 917.711 258.566L750.641 382.863L405.078 412.569Z" fill="#E81CFF" fillOpacity="0.2"/>
        <path d="M547.308 447.247L322.23 471.472C378.002 481.624 497.596 499.928 529.788 491.93C561.981 483.931 638.153 491.459 672.215 496.223C763.297 496.005 955.456 488.008 995.437 457.756C1045.41 419.942 1097.1 395.687 1107.85 368.268C1118.6 340.849 1215.57 302.713 1242.13 276.807C1268.69 250.901 1411.79 235.541 1424.14 204.061C1434.01 178.876 1601.93 196.836 1684.66 208.965L2011.45 188.299C1938.52 187.042 1763.87 181.443 1648.74 169.104C1504.82 153.68 1479.43 143.726 1448.43 142.115C1417.42 140.503 1220.24 186.211 1174.35 198.678C1137.63 208.652 1082.78 265.878 1059.94 293.244L892.87 417.541L547.308 447.247Z" fill="#40C9FF" fillOpacity="0.8"/>
    </g>
    <defs>
        <filter id="filter0_f_28_385" x="-0.000244141" y="-72.605" width="2191.45" height="748.828" filterUnits="userSpaceOnUse" color-interpolation-filters="sRGB">
            <feFlood flood-opacity="0" result="BackgroundImageFix"/>
            <feBlend mode="normal" in="SourceGraphic" in2="BackgroundImageFix" result="shape"/>
            <feGaussianBlur stdDeviation="90" result="effect1_foregroundBlur_28_385"/>
        </filter>
    </defs>
</svg>
