<svg width="1026" height="557" viewBox="0 0 1026 557" fill="none" xmlns="http://www.w3.org/2000/svg">
<g filter="url(#filter0_f_172_1631)">
<path d="M266.244 415.553L150 476.202C182.22 469.885 250.576 454.47 266.244 443.351C281.912 432.232 324.576 420.186 343.95 415.553C393.017 396.179 494.941 351.24 510.103 326.475C529.056 295.519 551.799 271.512 551.799 254.454C551.799 237.397 596.023 196.332 604.867 176.748C613.712 157.163 687.628 118.626 687.628 99.0413C687.628 83.3737 781.971 57.5557 829.142 46.6052L1000.98 -33.6283C961.391 -18.8872 866.037 15.0172 801.345 32.7065C720.479 54.8181 704.685 54.8181 687.628 60.504C670.57 66.1898 573.911 132.525 551.799 148.95C534.11 162.091 516.632 204.545 510.103 224.13L446.296 326.475L266.244 415.553Z" fill="#E81CFF"/>
<path d="M370.11 404.181L253.866 464.83C286.086 458.513 354.442 443.098 370.11 431.979C385.778 420.86 428.443 408.814 447.817 404.181C496.883 384.807 598.807 339.868 613.97 315.103C632.922 284.147 655.666 260.14 655.666 243.083C655.666 226.025 699.889 184.961 708.734 165.376C717.578 145.792 791.494 107.254 791.494 87.6696C791.494 72.002 885.837 46.1841 933.008 35.2335L1104.85 -45C1065.26 -30.2589 969.903 3.64553 905.211 21.3348C824.346 43.4464 808.552 43.4464 791.494 49.1323C774.437 54.8181 677.777 121.153 655.666 137.579C637.976 150.719 620.498 193.174 613.97 212.758L550.162 315.103L370.11 404.181Z" fill="#40C9FF"/>
</g>
<defs>
<filter id="filter0_f_172_1631" x="0" y="-195" width="1254.85" height="821.202" filterUnits="userSpaceOnUse" color-interpolation-filters="sRGB">
<feFlood flood-opacity="0" result="BackgroundImageFix"/>
<feBlend mode="normal" in="SourceGraphic" in2="BackgroundImageFix" result="shape"/>
<feGaussianBlur stdDeviation="75" result="effect1_foregroundBlur_172_1631"/>
</filter>
</defs>
</svg>
