 <!DOCTYPE svg PUBLIC "-//W3C//DTD SVG 1.1//EN" "http://www.w3.org/Graphics/SVG/1.1/DTD/svg11.dtd">
<svg xmlns="http://www.w3.org/2000/svg" width="865.76" height="682.89" viewBox="0 0 865.76 682.89">
<defs>
<style xmlns="http://www.w3.org/1999/xhtml">*, ::after, ::before { box-sizing: border-box; }
img, svg { vertical-align: middle; }
</style>
<style xmlns="http://www.w3.org/1999/xhtml">*, body, html { -moz-osx-font-smoothing: grayscale; }
img, svg { max-width: 100%; }
</style>
</defs>
<path d="M483.24,618.73H205.13a23.73,23.73,0,0,1-23.66-22L142.25,52.81a19.16,19.16,0,0,1,19.12-20.55H437.83a27.38,27.38,0,0,1,27.29,25.26l41.77,535.64A23.72,23.72,0,0,1,483.24,618.73Z" fill="#2e3135"/>
<path d="M502.67,618.73H224.57a23.72,23.72,0,0,1-23.66-22L161.68,52.81A19.17,19.17,0,0,1,180.8,32.26H457.26a27.38,27.38,0,0,1,27.29,25.25l41.77,535.66A23.72,23.72,0,0,1,502.67,618.73Z" fill="#3f4347"/>
<path d="M497.32,585.67,229.8,587.75a14.51,14.51,0,0,1-14.59-13.43L178.09,73.11a9.32,9.32,0,0,1,9.26-10L455.25,62a14.66,14.66,0,0,1,14.68,13.52L509,572.92A11.83,11.83,0,0,1,497.32,585.67Z" fill="#ebebeb"/>
<path d="M201.39,100.67l15,187a13.17,13.17,0,0,0,13.13,12.12h225a13.16,13.16,0,0,0,13.12-14.32l-16.34-187A13.61,13.61,0,0,0,437.74,86H214.94A13.59,13.59,0,0,0,201.39,100.67Z" fill="#fff"/>
<path d="M220.82,344.18l15,187A13.19,13.19,0,0,0,249,543.28h225A13.19,13.19,0,0,0,487.07,529l-16.35-187a13.58,13.58,0,0,0-13.54-12.41H234.38A13.6,13.6,0,0,0,220.82,344.18Z" fill="#fff"/>
<path d="M427.58,109.49a19.48,19.48,0,0,0-26.73.32c-15.68,15.2,16.57,42.49,16.57,42.49l10.93-15.49a24.76,24.76,0,0,0,4.72-14A17.29,17.29,0,0,0,427.58,109.49Zm-12.45,19.94a8,8,0,1,1,8-8A8,8,0,0,1,415.13,129.43Z" fill="#FF3392" data-primary="true"/>
<rect x="273.38" y="41.41" width="96.03" height="11.43" rx="5" fill="none" stroke="#000" stroke-miterlimit="10"/>
<circle cx="435.71" cy="47.12" r="5.72" fill="none" stroke="#000" stroke-miterlimit="10"/>
<rect x="252.8" y="107.71" width="17.15" height="11.43" fill="#212B36" data-secondary="true"/>
<polygon points="234.52 150.01 240.22 230.04 383.13 230.04 376 150.01 234.52 150.01" fill="#e6e6e6"/>
<rect x="236.79" y="230.04" width="150.9" height="8" fill="#212B36" data-secondary="true"/>
<polygon points="244.22 204.31 242.51 175.16 268.95 175.16 271.66 204.31 244.22 204.31" fill="#ccc"/>
<polygon points="245.88 178 247.66 204.31 244.22 204.31 242.51 175.16 268.95 175.16 268.95 178.4 245.88 178" opacity="0.2"/>
<polygon points="348.12 204.31 346.54 175.16 370.91 175.16 373.41 204.31 348.12 204.31" fill="#ccc"/>
<polygon points="349.65 178 351.29 204.31 348.12 204.31 346.54 175.16 370.91 175.16 370.91 178.4 349.65 178" opacity="0.2"/>
<rect x="247.08" y="100.85" width="26.29" height="9.15" fill="#FF3392" data-primary="true"/>
<circle cx="419.14" cy="166.59" r="2.86" fill="#FF3392" data-primary="true"/>
<circle cx="420.28" cy="182.59" r="2.86" fill="#FF3392" data-primary="true"/>
<circle cx="422.57" cy="199.74" r="2.86" fill="#FF3392" data-primary="true"/>
<rect x="237.94" y="253.47" width="157.76" height="1.14" fill="#ccc"/>
<rect x="239.65" y="269.48" width="157.76" height="1.14" fill="#ccc"/>
<rect x="240.8" y="283.2" width="80.02" height="1.14" fill="#ccc"/>
<path d="M437.76,270.65a7.88,7.88,0,0,1-2.7,3.19,9.84,9.84,0,0,1-4.63,1.66l.25,3.38-1.86.13-.25-3.42a10.1,10.1,0,0,1-6.27-2,7.53,7.53,0,0,1-2.88-5.12l3.17-.24a5.84,5.84,0,0,0,1.79,3.33,6,6,0,0,0,4,1.6l-.86-11.7a32.59,32.59,0,0,1-4.66-1.19,7.24,7.24,0,0,1-3.06-2.13,7,7,0,0,1-1.5-4.16,7.28,7.28,0,0,1,1.92-5.69,9.51,9.51,0,0,1,6.12-2.81l-.26-3.55,1.86-.13.27,3.59a9.36,9.36,0,0,1,5.78,1.87,7.72,7.72,0,0,1,2.85,4.67l-3.12.23a5.54,5.54,0,0,0-1.76-2.8,5.92,5.92,0,0,0-3.57-1.44l.83,11.29a28.86,28.86,0,0,1,4.61,1.17,6.8,6.8,0,0,1,4.62,6.43A8,8,0,0,1,437.76,270.65ZM423,257.07a11.83,11.83,0,0,0,4.31,1.7l-.8-10.86a6.52,6.52,0,0,0-4,1.78,4.8,4.8,0,0,0-1.27,3.92A4.38,4.38,0,0,0,423,257.07Zm11.29,14a5.33,5.33,0,0,0,1.2-3.93,4.51,4.51,0,0,0-1.73-3.53,12.16,12.16,0,0,0-4.35-1.76l.82,11.24A6.11,6.11,0,0,0,434.31,271.07Z" fill="#FF3392" data-primary="true"/>
<path d="M447,353a19.48,19.48,0,0,0-26.74.33c-15.68,15.19,16.58,42.48,16.58,42.48l10.93-15.48a24.82,24.82,0,0,0,4.72-14.06A17.39,17.39,0,0,0,447,353Zm-12.45,19.95a8,8,0,1,1,8-8A8,8,0,0,1,434.57,372.94Z" fill="#FF3392" data-primary="true"/>
<circle cx="438.57" cy="410.09" r="2.86" fill="#FF3392" data-primary="true"/>
<circle cx="439.71" cy="426.1" r="2.86" fill="#FF3392" data-primary="true"/>
<circle cx="442" cy="443.24" r="2.86" fill="#FF3392" data-primary="true"/>
<path d="M457.2,514.15a7.88,7.88,0,0,1-2.7,3.19,9.77,9.77,0,0,1-4.64,1.66l.25,3.38-1.86.14-.25-3.43a10.08,10.08,0,0,1-6.27-2,7.53,7.53,0,0,1-2.88-5.12l3.17-.23a5.92,5.92,0,0,0,1.8,3.33,6,6,0,0,0,4,1.59l-.86-11.7a31.45,31.45,0,0,1-4.65-1.19,7.25,7.25,0,0,1-3.07-2.13,6.94,6.94,0,0,1-1.49-4.16,7.18,7.18,0,0,1,1.92-5.68,9.41,9.41,0,0,1,6.12-2.81l-.26-3.55,1.86-.14.26,3.59a9.46,9.46,0,0,1,5.79,1.87,7.83,7.83,0,0,1,2.85,4.68l-3.13.23a5.46,5.46,0,0,0-1.76-2.81,5.88,5.88,0,0,0-3.56-1.43l.83,11.28a29.14,29.14,0,0,1,4.61,1.17,7.43,7.43,0,0,1,3.11,2.17,7.24,7.24,0,0,1,1.5,4.27A7.81,7.81,0,0,1,457.2,514.15Zm-14.74-13.57a11.76,11.76,0,0,0,4.31,1.7l-.8-10.86a6.47,6.47,0,0,0-4,1.78,4.79,4.79,0,0,0-1.26,3.91A4.38,4.38,0,0,0,442.46,500.58Zm11.28,14a5.33,5.33,0,0,0,1.2-3.93,4.51,4.51,0,0,0-1.72-3.53,12.22,12.22,0,0,0-4.36-1.76l.83,11.24A6.07,6.07,0,0,0,453.74,514.57Z" fill="#FF3392" data-primary="true"/>
<path d="M344.87,285.89a2.63,2.63,0,0,1-1,1,3.24,3.24,0,0,1-1.53.46v1.11h-.74v-1.11a3.42,3.42,0,0,1-2-.81,2.3,2.3,0,0,1-.8-1.76h1.33a1.67,1.67,0,0,0,.44,1,1.72,1.72,0,0,0,1.06.54v-3.43a10.78,10.78,0,0,1-1.48-.48,2.38,2.38,0,0,1-1-.77,2.22,2.22,0,0,1-.4-1.4,2.44,2.44,0,0,1,.77-1.84,3.29,3.29,0,0,1,2.07-.81v-1.14h.74v1.14a3.14,3.14,0,0,1,1.88.75,2.53,2.53,0,0,1,.82,1.69h-1.33a1.61,1.61,0,0,0-.42-.87,1.73,1.73,0,0,0-.95-.51V282a10.47,10.47,0,0,1,1.48.47,2.41,2.41,0,0,1,1,.76,2.31,2.31,0,0,1,.39,1.41A2.58,2.58,0,0,1,344.87,285.89Zm-4.41-4.7a3.19,3.19,0,0,0,1.17.59v-3.17a1.91,1.91,0,0,0-1.14.46,1.41,1.41,0,0,0-.42,1.09A1.33,1.33,0,0,0,340.46,281.19Zm3.07,4.6a1.57,1.57,0,0,0,.42-1.09,1.3,1.3,0,0,0-.41-1,3.05,3.05,0,0,0-1.17-.59v3.24A1.78,1.78,0,0,0,343.53,285.79Z" fill="#FF3392" data-primary="true"/>
<path d="M355.76,278.17a2.06,2.06,0,0,0-1.83.94,5.94,5.94,0,0,0-.58,3.1,2.35,2.35,0,0,1,1-1.12,3.35,3.35,0,0,1,1.64-.41,3,3,0,0,1,2.26.88,3.39,3.39,0,0,1,.84,2.43,3.76,3.76,0,0,1-.36,1.67,2.72,2.72,0,0,1-1.1,1.18,3.32,3.32,0,0,1-1.77.44,3.46,3.46,0,0,1-2.21-.63,3.29,3.29,0,0,1-1.11-1.74,10.23,10.23,0,0,1-.32-2.75q0-5,3.51-5a3,3,0,0,1,2.12.73,2.91,2.91,0,0,1,.9,1.83h-1.15A1.72,1.72,0,0,0,355.76,278.17Zm-1.1,3.81a1.92,1.92,0,0,0-.84.73,2,2,0,0,0-.32,1.18,2.42,2.42,0,0,0,.6,1.7,2.25,2.25,0,0,0,1.73.65,2,2,0,0,0,1.53-.6,2.23,2.23,0,0,0,.57-1.61,2.46,2.46,0,0,0-.55-1.68,2,2,0,0,0-1.61-.61A2.64,2.64,0,0,0,354.66,282Z" fill="#FF3392" data-primary="true"/>
<path d="M362.14,278.51a3.37,3.37,0,0,1,5.36,0,7.38,7.38,0,0,1,.77,3.68,7.52,7.52,0,0,1-.77,3.73,3.37,3.37,0,0,1-5.36,0,7.52,7.52,0,0,1-.77-3.73A7.38,7.38,0,0,1,362.14,278.51Zm4.74,1.66a2.6,2.6,0,0,0-.65-1.34,1.84,1.84,0,0,0-1.4-.51,1.87,1.87,0,0,0-1.42.51,2.6,2.6,0,0,0-.65,1.34,11.58,11.58,0,0,0-.15,2,12,12,0,0,0,.15,2.07,2.6,2.6,0,0,0,.65,1.35,1.87,1.87,0,0,0,1.42.51,1.84,1.84,0,0,0,1.4-.51,2.6,2.6,0,0,0,.65-1.35,11.84,11.84,0,0,0,.16-2.07A11.47,11.47,0,0,0,366.88,280.17Z" fill="#FF3392" data-primary="true"/>
<path d="M372,285.53l-1.54,3.69h-.83l1-3.69Z" fill="#FF3392" data-primary="true"/>
<path d="M374.57,278.51a3.37,3.37,0,0,1,5.36,0,7.38,7.38,0,0,1,.77,3.68,7.52,7.52,0,0,1-.77,3.73,3.37,3.37,0,0,1-5.36,0,7.41,7.41,0,0,1-.77-3.73A7.28,7.28,0,0,1,374.57,278.51Zm4.74,1.66a2.6,2.6,0,0,0-.65-1.34,2.2,2.2,0,0,0-2.82,0,2.6,2.6,0,0,0-.65,1.34,11.47,11.47,0,0,0-.16,2,11.84,11.84,0,0,0,.16,2.07,2.6,2.6,0,0,0,.65,1.35,2.2,2.2,0,0,0,2.82,0,2.6,2.6,0,0,0,.65-1.35,12,12,0,0,0,.15-2.07A11.58,11.58,0,0,0,379.31,280.17Z" fill="#FF3392" data-primary="true"/>
<path d="M383.73,278.51a3.38,3.38,0,0,1,5.37,0,7.39,7.39,0,0,1,.76,3.68,7.52,7.52,0,0,1-.76,3.73,3.38,3.38,0,0,1-5.37,0,7.52,7.52,0,0,1-.77-3.73A7.38,7.38,0,0,1,383.73,278.51Zm4.74,1.66a2.59,2.59,0,0,0-.64-1.34,2.22,2.22,0,0,0-2.83,0,2.52,2.52,0,0,0-.64,1.34,10.59,10.59,0,0,0-.16,2,10.94,10.94,0,0,0,.16,2.07,2.51,2.51,0,0,0,.64,1.35,2.22,2.22,0,0,0,2.83,0,2.59,2.59,0,0,0,.64-1.35,10.94,10.94,0,0,0,.16-2.07A10.59,10.59,0,0,0,388.47,280.17Z" fill="#FF3392" data-primary="true"/>
<path d="M392.89,278.51a3.38,3.38,0,0,1,5.37,0,7.38,7.38,0,0,1,.77,3.68,7.52,7.52,0,0,1-.77,3.73,3.38,3.38,0,0,1-5.37,0,7.52,7.52,0,0,1-.76-3.73A7.39,7.39,0,0,1,392.89,278.51Zm4.74,1.66a2.59,2.59,0,0,0-.64-1.34,1.86,1.86,0,0,0-1.41-.51,1.88,1.88,0,0,0-1.42.51,2.59,2.59,0,0,0-.64,1.34,10.59,10.59,0,0,0-.16,2,10.94,10.94,0,0,0,.16,2.07,2.59,2.59,0,0,0,.64,1.35,1.88,1.88,0,0,0,1.42.51,1.86,1.86,0,0,0,1.41-.51,2.59,2.59,0,0,0,.64-1.35,10.94,10.94,0,0,0,.16-2.07A10.59,10.59,0,0,0,397.63,280.17Z" fill="#FF3392" data-primary="true"/>
<rect x="258.52" y="495.83" width="157.76" height="1.14" fill="#ccc"/>
<rect x="260.23" y="511.84" width="157.76" height="1.14" fill="#ccc"/>
<rect x="261.37" y="525.56" width="80.02" height="1.14" fill="#ccc"/>
<path d="M365.44,528.25a2.6,2.6,0,0,1-1,1,3.24,3.24,0,0,1-1.53.46v1.11h-.74V529.7a3.42,3.42,0,0,1-2-.81,2.3,2.3,0,0,1-.8-1.76h1.33a1.74,1.74,0,0,0,.43,1,1.77,1.77,0,0,0,1.07.54v-3.43a10.34,10.34,0,0,1-1.48-.48,2.38,2.38,0,0,1-1-.77,2.22,2.22,0,0,1-.4-1.4,2.44,2.44,0,0,1,.77-1.84,3.29,3.29,0,0,1,2.07-.81V518.8H363v1.14a3.14,3.14,0,0,1,1.88.75,2.57,2.57,0,0,1,.82,1.69h-1.33a1.63,1.63,0,0,0-.43-.87A1.67,1.67,0,0,0,363,521v3.35a10.29,10.29,0,0,1,1.47.47,2.28,2.28,0,0,1,1,.76,2.31,2.31,0,0,1,.39,1.41A2.58,2.58,0,0,1,365.44,528.25Zm-4.4-4.7a3.11,3.11,0,0,0,1.17.59V521a1.91,1.91,0,0,0-1.14.46,1.41,1.41,0,0,0-.43,1.09A1.33,1.33,0,0,0,361,523.55Zm3.07,4.6a1.57,1.57,0,0,0,.42-1.09,1.28,1.28,0,0,0-.42-1,2.93,2.93,0,0,0-1.16-.59v3.24A1.78,1.78,0,0,0,364.11,528.15Z" fill="#FF3392" data-primary="true"/>
<path d="M376.34,520.53a2,2,0,0,0-1.83.94,5.92,5.92,0,0,0-.59,3.1,2.32,2.32,0,0,1,1.05-1.12,3.35,3.35,0,0,1,1.64-.41,3,3,0,0,1,2.26.88,3.39,3.39,0,0,1,.84,2.43,3.76,3.76,0,0,1-.36,1.67,2.72,2.72,0,0,1-1.1,1.18,3.34,3.34,0,0,1-1.78.44,3.45,3.45,0,0,1-2.2-.63,3.31,3.31,0,0,1-1.12-1.74,10.27,10.27,0,0,1-.31-2.75q0-5,3.51-5a2.91,2.91,0,0,1,2.11.73,2.87,2.87,0,0,1,.91,1.83h-1.15A1.72,1.72,0,0,0,376.34,520.53Zm-1.1,3.81a1.92,1.92,0,0,0-.84.73,2,2,0,0,0-.33,1.18,2.38,2.38,0,0,0,.61,1.7,2.25,2.25,0,0,0,1.73.65,2,2,0,0,0,1.53-.6,2.23,2.23,0,0,0,.56-1.61,2.46,2.46,0,0,0-.54-1.68,2,2,0,0,0-1.61-.61A2.64,2.64,0,0,0,375.24,524.34Z" fill="#FF3392" data-primary="true"/>
<path d="M382.72,520.87a3.37,3.37,0,0,1,5.36,0,7.38,7.38,0,0,1,.77,3.68,7.52,7.52,0,0,1-.77,3.73,3.37,3.37,0,0,1-5.36,0,7.41,7.41,0,0,1-.77-3.73A7.28,7.28,0,0,1,382.72,520.87Zm4.74,1.66a2.6,2.6,0,0,0-.65-1.34,1.84,1.84,0,0,0-1.41-.51,1.88,1.88,0,0,0-1.42.51,2.67,2.67,0,0,0-.64,1.34,11.47,11.47,0,0,0-.16,2,11.84,11.84,0,0,0,.16,2.07A2.67,2.67,0,0,0,384,528a1.88,1.88,0,0,0,1.42.5,1.84,1.84,0,0,0,1.41-.5,2.6,2.6,0,0,0,.65-1.35,12,12,0,0,0,.15-2.07A11.58,11.58,0,0,0,387.46,522.53Z" fill="#FF3392" data-primary="true"/>
<path d="M392.61,527.89l-1.54,3.69h-.84l1-3.69Z" fill="#FF3392" data-primary="true"/>
<path d="M395.14,520.87a3.38,3.38,0,0,1,5.37,0,7.38,7.38,0,0,1,.77,3.68,7.52,7.52,0,0,1-.77,3.73,3.38,3.38,0,0,1-5.37,0,7.52,7.52,0,0,1-.76-3.73A7.39,7.39,0,0,1,395.14,520.87Zm4.74,1.66a2.59,2.59,0,0,0-.64-1.34,1.84,1.84,0,0,0-1.41-.51,1.88,1.88,0,0,0-1.42.51,2.59,2.59,0,0,0-.64,1.34,10.59,10.59,0,0,0-.16,2,10.94,10.94,0,0,0,.16,2.07,2.59,2.59,0,0,0,.64,1.35,1.88,1.88,0,0,0,1.42.5,1.84,1.84,0,0,0,1.41-.5,2.59,2.59,0,0,0,.64-1.35,10.94,10.94,0,0,0,.16-2.07A10.59,10.59,0,0,0,399.88,522.53Z" fill="#FF3392" data-primary="true"/>
<path d="M404.31,520.87a3.37,3.37,0,0,1,5.36,0,7.38,7.38,0,0,1,.77,3.68,7.52,7.52,0,0,1-.77,3.73,3.37,3.37,0,0,1-5.36,0,7.52,7.52,0,0,1-.77-3.73A7.38,7.38,0,0,1,404.31,520.87Zm4.74,1.66a2.6,2.6,0,0,0-.65-1.34,1.84,1.84,0,0,0-1.4-.51,1.87,1.87,0,0,0-1.42.51,2.6,2.6,0,0,0-.65,1.34,11.58,11.58,0,0,0-.15,2,12,12,0,0,0,.15,2.07,2.6,2.6,0,0,0,.65,1.35,1.86,1.86,0,0,0,1.42.5,1.83,1.83,0,0,0,1.4-.5,2.6,2.6,0,0,0,.65-1.35,11.84,11.84,0,0,0,.16-2.07A11.47,11.47,0,0,0,409.05,522.53Z" fill="#FF3392" data-primary="true"/>
<path d="M413.47,520.87a3.38,3.38,0,0,1,5.37,0,7.39,7.39,0,0,1,.76,3.68,7.52,7.52,0,0,1-.76,3.73,3.38,3.38,0,0,1-5.37,0,7.52,7.52,0,0,1-.77-3.73A7.38,7.38,0,0,1,413.47,520.87Zm4.74,1.66a2.59,2.59,0,0,0-.64-1.34,2.22,2.22,0,0,0-2.83,0,2.59,2.59,0,0,0-.64,1.34,10.59,10.59,0,0,0-.16,2,10.94,10.94,0,0,0,.16,2.07,2.59,2.59,0,0,0,.64,1.35,2.25,2.25,0,0,0,2.83,0,2.59,2.59,0,0,0,.64-1.35,10.94,10.94,0,0,0,.16-2.07A10.59,10.59,0,0,0,418.21,522.53Z" fill="#FF3392" data-primary="true"/>
<polygon points="258.6 418.67 261.21 474.11 395.13 474.11 391.13 378.65 355.69 345.5 324.58 377.26 326.86 418.67 258.6 418.67" fill="#e6e6e6"/>
<rect x="326.23" y="406.66" width="66.09" height="1.14" fill="#ccc"/>
<circle cx="357.4" cy="382.65" r="8.57" fill="#ccc"/>
<rect x="327.56" y="418.64" width="1.14" height="55.5" transform="translate(-20.02 15.43) rotate(-2.61)" fill="#ccc"/>
<polygon points="381.98 473.54 341.97 473.54 340.83 428.95 379.69 428.95 381.98 473.54" fill="#ccc"/>
<polygon points="347.55 436.38 380.08 436.38 379.69 428.95 340.83 428.95 341.97 473.54 348.83 473.54 347.55 436.38" opacity="0.2"/>
<polygon points="268.63 428.95 269.95 463.25 289.57 463.25 287.12 428.95 268.63 428.95" fill="#ccc"/>
<polygon points="273 463.25 272.23 432.38 287.37 432.38 287.12 428.95 268.63 428.95 269.95 463.25 273 463.25" opacity="0.2"/>
<polygon points="299.5 428.95 300.81 463.25 319.11 463.25 317.99 428.95 299.5 428.95" fill="#ccc"/>
<polygon points="303.86 463.25 303.1 432.38 318.23 432.38 317.99 428.95 299.5 428.95 300.81 463.25 303.86 463.25" opacity="0.2"/>
<path d="M208.81,621.58h-3.68a23.72,23.72,0,0,1-23.66-22L142.25,55.66a19.16,19.16,0,0,1,19.12-20.54h4.92S147,40.94,148.46,64.9l26.75,333.76,13,192S191.11,612.44,208.81,621.58Z" opacity="0.2"/>
<path d="M476.32,639.94s13.53,14.49,41.32,6.31a24.55,24.55,0,0,0,9.55-5.29c4.32-3.88,10.33-11,14.3-23l5.11,23.22,6.82.43,4.44-35.42a52.88,52.88,0,0,1,1.74-8.62c1.7-5.78,4-18-4.53-23.27l-14.85,13.2s-2.34,1.72-3.83,13.22c0,0,1.27,22.36-14.92,25.55a19.35,19.35,0,0,1-16-5.1,45.66,45.66,0,0,1-19.2,7.61,21.46,21.46,0,0,0-8,2.67C475.09,633.39,472.46,636.31,476.32,639.94Z" fill="#FF3392" data-primary="true"/>
<path d="M505.49,621.21a19.35,19.35,0,0,0,16,5.1c16.19-3.19,14.92-25.55,14.92-25.55,1.49-11.5,3.83-13.22,3.83-13.22l14.85-13.2s-19.3-3.28-31.88-3.12C523.19,571.22,519.48,614.67,505.49,621.21Z" fill="#f9b499"/>
<path d="M521.67,583l1.52-11.77a228.63,228.63,0,0,1,31.88,3.12S531,578.41,521.67,583Z" fill="#f7a48b"/>
<path d="M622.21,581.1v13h4.24s7,51.94,31.86,29.45c0,0-11-20.33-9.92-41.09Z" fill="#f9b499"/>
<path d="M658.31,623.53s18.74,22.76,11.78,24.1c0,0-6.16,3.48-31.06,2.94,0,0-15-2.35-15.26-13.49l-1.56-43h4.24S633.68,646,658.31,623.53Z" fill="#FF3392" data-primary="true"/>
<path d="M519.45,571.19c14.61-.23,38.94,3.53,49.11,5.22a5,5,0,0,0,5.66-3.87l20.85-99.48c11.8-49.86,17.41-107.44,17.41-107.44L614,409.34l-.37,15.33v0L609.88,578a2.53,2.53,0,0,0,2.38,2.58L658.92,583a2.49,2.49,0,0,0,2.63-2.36c.07-1.42.19-3.21.33-5.35C664,543.14,673.25,435,673.25,435c5.61-62.24-.91-119.9-.91-119.9l-10.59-16.63H573.53l-5.3,16.63-17.12,92.77L517,568.13A2.53,2.53,0,0,0,519.45,571.19Z" fill="#212B36" data-secondary="true"/>
<path d="M625,298.46l.23,5.26s-14.06,3.67-33.52,1.18l0-6.44Z" opacity="0.2"/>
<path d="M643.42,173.43l6.11,1.23S622.42,206,623,254.49l2,44H591.69V249.67s-5.12-47.64,9.94-76.24l5.62-1.28Z" fill="#d1d3d4"/>
<path d="M649.53,174.66s16-1.21,27.41,7.23l-20.48,23.8-13-5.43,6.11,11.15s-21.37,23.5-26.5,39.46C623,250.87,621.82,209.6,649.53,174.66Z" fill="#FF3392" data-primary="true"/>
<path d="M649.53,174.66s16-1.21,27.41,7.23l-20.48,23.8-13-5.43,6.11,11.15s-21.37,23.5-26.5,39.46C623,250.87,621.82,209.6,649.53,174.66Z" opacity="0.2"/>
<path d="M500.8,193.34c17.27,9.81,35.05,36.19,38.3,41.15a1.76,1.76,0,0,0,1.51.82h0a1.81,1.81,0,0,0,1.8-1.74c.53-11.38,10.74-30.1,11.07-30.7a146.69,146.69,0,0,0-13.07,16.59s-30.32-27.13-36.19-29.65Z" opacity="0.2"/>
<path d="M500.8,193.34,487,178.7s-7.17-6.59-13.62-7.32l-14.85-1.65a2.06,2.06,0,0,0-2.29,2.05h0a2.05,2.05,0,0,0,1.56,2l14.85,3.75s-7.33,12.89-4.1,21.39c0,0,6.44,9.52,6.88,2.93,0,0,6.9,7.18,10.41,6.89Z" fill="#f9b499"/>
<path d="M487.19,183.39a67.92,67.92,0,0,0-14.5-5.86l-14.85-3.75s-2.13-.43-1.19-3.17a2.23,2.23,0,0,1,1.92-.88s-1.26,2.88,4.74,3.66C463.31,173.39,481.48,174.9,487.19,183.39Z" fill="#f7a48b"/>
<path d="M485,196.52a8.45,8.45,0,0,1-4.15-1.07,11.9,11.9,0,0,1-3.12-2.84,49,49,0,0,0-6.65-6.13,49.88,49.88,0,0,0,5.58,7.07,23.23,23.23,0,0,0,1.64,1.66,7.12,7.12,0,0,0,2.08,1.25A6.21,6.21,0,0,0,485,196.52Z" fill="#f7a48b"/>
<path d="M470.41,195.18a6.08,6.08,0,0,0,1.74,3,4.14,4.14,0,0,0,1.65.95,3.4,3.4,0,0,0,4.25-3.17,4.81,4.81,0,0,0-1.23-3.26,8.28,8.28,0,0,1,.13,3.1,2.78,2.78,0,0,1-1.64,1.89,2.72,2.72,0,0,1-2.48-.4A13.14,13.14,0,0,1,470.41,195.18Z" fill="#f7a48b"/>
<path d="M480.71,180.28s-11.47-3.21-13.07,2c0,0-.61,1.92,3.44,3a14.61,14.61,0,0,1,7.46,6.21" fill="#f9b499"/>
<path d="M625,298.46l-2-47.59s-22.61-6.16-31.33,1.51v46.09Z" opacity="0.2"/>
<path d="M609.88,578a2.53,2.53,0,0,0,2.38,2.58L658.92,583a2.49,2.49,0,0,0,2.63-2.36c.07-1.42.19-3.21.33-5.35-6.42,2.18-20.84,5.85-33.61.32a13.61,13.61,0,0,1-8.15-11.88l-6.54-139Z" opacity="0.2"/>
<path d="M519.45,571.19c14.61-.23,38.94,3.53,49.11,5.22a5,5,0,0,0,5.66-3.87l20.85-99.48c11.8-49.86,17.41-107.44,17.41-107.44L567.93,540.33a25.46,25.46,0,0,1-20.07,18.89L517,568.13A2.53,2.53,0,0,0,519.45,571.19Z" opacity="0.2"/>
<path d="M536.26,258s-23.85-31.1-44.91-44C491.35,214,512.71,240.41,536.26,258Z" fill="#fff" opacity="0.4"/>
<polygon points="579.28 280.29 579.28 285.95 566.36 287.81 566.36 281.71 579.28 280.29" opacity="0.2"/>
<path d="M643.42,173.43s-10.14-4.33-10.53-18.72l-4.08-2.56L611,166.54v5.61h-3.74s-3.71,12.08,6.58,17.67C613.83,189.82,624.77,187.3,643.42,173.43Z" fill="#f9b499"/>
<path d="M611.14,163.77l-.15,8.38s8.66-1.15,14-15.55Z" fill="#f7a48b"/>
<ellipse cx="607.25" cy="134.77" rx="25.64" ry="32.11" fill="#f9b499"/>
<path d="M581.61,129.52s1.78,5.11,17.12-6.47l10.57-8.3s11.49,21.25,19.33,22.83a8.2,8.2,0,0,1,6.06-2.81c4,0,7.5,3.21,8.73,7.66,0,0,.82.74,1.84-2.94-.23,1.59-3.09,24.29,15.6,27.39,0,0,6.56,1.2,5.8-6.6,0,0,6.23,5.14,12,2.73a4.4,4.4,0,0,0,2-6.67,9.07,9.07,0,0,0-2.36-2.1s-7.8-5-3-19.47c0,0,10.17-36.13-12.79-38.63,0,0-12.3-1.26-19,2L640,98.9s-19.11-13.06-40.25-3C599.73,95.9,568.27,107.81,581.61,129.52Z" fill="#212B36" data-secondary="true"/>
<path d="M660.88,166.88s6.55,1.2,5.79-6.61c0,0,6.23,5.15,12,2.73a4.62,4.62,0,0,0,2.62-2.85c-.25-.07-.73-.23-1.38-.49a28.13,28.13,0,0,1-17.46-29.78c1.26-10.06.49-28.46-14.4-27.28,0,0,.2,26.92-2.75,36.89v0s0,0,0,0h0C645,141.79,642.48,163.82,660.88,166.88Z" opacity="0.2"/>
<path d="M647.79,119.53s4.85-22.64-4.37-24.15c0,0-3.7-.76-3.44,3.52A31.58,31.58,0,0,1,647.79,119.53Z" fill="#FF3392" data-primary="true"/>
<path d="M625.48,146.06c0,6.23,4.12,11.3,9.21,11.3s9.23-5.07,9.23-11.3a13.43,13.43,0,0,0-.5-3.63c-1.23-4.45-4.68-7.66-8.73-7.66a8.2,8.2,0,0,0-6.06,2.81A12.4,12.4,0,0,0,625.48,146.06Z" fill="#f9b499"/>
<path d="M623,250.87l.25,5.86L625,297.14l.8,18h46.59c-.32-15.76-10.43-35.73-10.43-35.73-9.2-19.3,8-48.43,8-48.43l18.7,17.17-19.31,27.7a5.85,5.85,0,0,0-.43,6c5.32,10.6,15.54,13.6,20.4,14.44a5.89,5.89,0,0,0,4.78-1.34c18.53-15.49,27.66-44,27.66-44,7.05-13.79-8-31.88-8-31.88-15.54-22.13-28.9-32.15-34.27-35.62-1.17-.75-2-1.2-2.31-1.38l-.19-.1-20.48,23.8-13-5.42,6.1,11.14c-21.64,24.43-26.21,38.56-26.47,39.42Z" fill="#FF3392" data-primary="true"/>
<path d="M623,250.87l.25,5.86c7.09-17.55,28.62-44,28.62-44l-2.38-6.63,8.77,2.28,21.15-25L677.13,182l-.19-.1-20.48,23.8-13-5.42,6.1,11.14c-21.64,24.43-26.21,38.56-26.47,39.42Z" fill="#fff" opacity="0.4"/>
<path d="M688.58,248.11l9.27-6.48s-13.45,1.65-28-10.69Z" opacity="0.2"/>
<path d="M681.62,293.88a14.35,14.35,0,0,1-8.32,6.41s-2.32,2.08.24,2.66a14.17,14.17,0,0,1,3.29,1.17c2.5,1.3,4.74,3.5-5.05,4.81a113.52,113.52,0,0,0-8-25.61h5.94A25.87,25.87,0,0,0,681.62,293.88Z" fill="#f9b499"/>
<polygon points="656.84 278.72 660.29 285.95 637.68 283.32 634.7 277.47 656.84 278.72" opacity="0.2"/>
<path d="M483.18,211.52s49.95,64.55,64.92,56.25L568.31,252s-1.81,44.08-4.45,63.09h27.91l-.07-16.63v-48.8s-5.3-46.1,9.94-76.24c0,0-11.82-.75-16.58,2.44a159.92,159.92,0,0,0-31.57,27v0a146.69,146.69,0,0,0-13.07,16.59s-30.32-27.13-36.19-29.65l-3.42,3.53Z" fill="#FF3392" data-primary="true"/>
<path d="M601.63,173.43s-10.24-.58-16.56,2.43l-6.63,20.19H589l-11.75,12s2.72,28.61,14.46,41.57C591.69,249.67,586.27,202.93,601.63,173.43Z" fill="#FF3392" data-primary="true"/>
<path d="M601.63,173.43s-10.24-.58-16.56,2.43l-6.63,20.19H589l-11.75,12s2.72,28.61,14.46,41.57C591.69,249.67,586.27,202.93,601.63,173.43Z" opacity="0.2"/>
<path d="M591.69,249.67s-15.9-11.68-19.27-44.78l4.81-6.43-6-1.54,9.36-18,4.52-3-6.63,20.19H589l-11.75,12S580.93,239.58,591.69,249.67Z" fill="#fff" opacity="0.4"/>
<rect x="149.91" y="82.56" width="6.86" height="36.58" rx="3" transform="translate(-4.74 7.6) rotate(-2.8)" fill="#fff"/>
<rect x="152.78" y="129.45" width="6.86" height="13.78" rx="3" transform="translate(-6.47 7.79) rotate(-2.8)" fill="#fff"/>
<polygon points="233.37 139.72 243.65 116.86 361.75 116.86 376 139.72 233.37 139.72" fill="#FF3392" data-primary="true"/>
<rect x="225.36" y="139.72" width="157.76" height="10.29" fill="#212B36" data-secondary="true"/>
<polygon points="275.35 153.09 281.23 230.04 341.75 230.04 334.8 152.3 304.24 132.81 275.35 153.09" fill="#FF3392" data-primary="true"/>
<circle cx="305.96" cy="162.02" r="9.72" fill="#fff" opacity="0.2"/>
<polygon points="292.81 230.04 290.52 188.88 325.96 188.88 329.6 230.04 292.81 230.04" fill="#ccc"/>
<polygon points="295.05 192.88 297.43 230.04 292.81 230.04 290.52 188.88 325.96 188.88 325.96 193.45 295.05 192.88" opacity="0.2"/>
<path d="M268,155.18h0a3.4,3.4,0,0,0,4.15.19l32.14-22.55,35.65,22.72a3.15,3.15,0,0,0,3.89-.38h0a3.17,3.17,0,0,0-.56-5L303.1,126l-34.87,23.79A3.39,3.39,0,0,0,268,155.18Z" fill="#FF3392" data-primary="true"/>
<path d="M268,155.18h0a3.4,3.4,0,0,0,4.15.19l32.14-22.55,35.65,22.72a3.15,3.15,0,0,0,3.89-.38h0a3.17,3.17,0,0,0-.56-5L303.1,126l-34.87,23.79A3.39,3.39,0,0,0,268,155.18Z" fill="#fff" opacity="0.2"/>
<polygon points="245.94 418.67 326.86 418.67 324.82 385.51 258.27 385.43 245.94 418.67" fill="#FF3392" data-primary="true"/>
<polygon points="315.68 377.51 320.25 382.08 355.69 345.5 395.13 382.09 399.13 377.51 355.69 335.21 315.68 377.51" fill="#FF3392" data-primary="true"/>
<rect x="255.09" y="474.11" width="148.62" height="8.66" fill="#212B36" data-secondary="true"/>
</svg>